<?xml version="1.0" encoding="UTF-8"?>
<svg width="24px" height="19px" viewBox="0 0 24 19" version="1.1" xmlns="http://www.w3.org/2000/svg" xmlns:xlink="http://www.w3.org/1999/xlink">
    <!-- Generator: Sketch 46 (44423) - http://www.bohemiancoding.com/sketch -->
    <title>desktop</title>
    <desc>Created with Sketch.</desc>
    <defs></defs>
    <g id="icons" stroke="none" stroke-width="1" fill="none" fill-rule="evenodd">
        <g id="Artboard" transform="translate(-13.000000, -153.000000)" fill-rule="nonzero" fill="#FFFFFF">
            <path d="M14,156.003351 L14,163.996649 C14,165.105351 14.8914618,166 15.9910904,166 L34.0089096,166 C35.1060652,166 36,165.102942 36,163.996649 L36,156.003351 C36,154.894649 35.1085382,154 34.0089096,154 L15.9910904,154 C14.8939348,154 14,154.897058 14,156.003351 Z M28,167 L28,168.990631 C28,169.54809 28.3678589,170.245239 28.8356673,170.557112 L30.1643327,171.442888 C30.625859,171.750573 30.544239,172 29.9975267,172 L20.0024733,172 C19.4488226,172 19.3678589,171.754761 19.8356673,171.442888 L21.1643327,170.557112 C21.625859,170.249427 22,169.556647 22,168.990631 L22,167 L15.9910904,167 C14.3391568,167 13,165.657621 13,163.996649 L13,156.003351 C13,154.344646 14.3417706,153 15.9910904,153 L34.0089096,153 C35.6608432,153 37,154.342379 37,156.003351 L37,163.996649 C37,165.655354 35.6582294,167 34.0089096,167 L28,167 Z M27,168.990631 L27,167 L23,167 L23,168.990631 C23,169.692871 22.670108,170.46171 22.1710806,171 L27.8289443,171 C27.3287746,170.460354 27,169.690176 27,168.990631 Z" id="desktop"></path>
        </g>
    </g>
</svg>